<?xml version="1.0" standalone="no"?>
<!DOCTYPE svg PUBLIC "-//W3C//DTD SVG 20010904//EN"
 "http://www.w3.org/TR/2001/REC-SVG-20010904/DTD/svg10.dtd">
<svg version="1.0" xmlns="http://www.w3.org/2000/svg"
 width="118.000000pt" height="118.000000pt" viewBox="0 0 118.000000 118.000000"
 preserveAspectRatio="xMidYMid meet">
<metadata>
Created by potrace 1.11, written by Peter Selinger 2001-2013
</metadata>
<g transform="translate(0.000000,118.000000) scale(0.100000,-0.100000)"
fill="#000000" stroke="none">
<path d="M970 1030 c-71 -20 -157 -100 -204 -189 -31 -60 -71 -178 -91 -269
-7 -32 -6 -33 22 -27 140 31 299 104 361 167 108 108 128 249 44 304 -27 18
-94 25 -132 14z"/>
<path d="M151 808 c-84 -14 -146 -87 -131 -154 25 -109 150 -179 317 -177 83
1 222 24 276 47 l30 12 -74 74 c-86 86 -125 120 -138 120 -5 0 -11 4 -13 8 -6
16 -116 61 -169 70 -30 4 -74 4 -98 0z"/>
<path d="M701 477 c78 -112 175 -195 249 -213 59 -13 87 -9 100 16 40 74 -147
204 -323 224 l-48 6 22 -33z"/>
<path d="M598 463 c-58 -52 -59 -52 -100 -103 -73 -90 -103 -216 -58 -240 64
-34 153 72 190 228 12 53 21 152 14 152 -2 0 -23 -17 -46 -37z"/>
</g>
</svg>
